<mxfile host="app.diagrams.net" modified="2022-04-23T18:32:08.783Z" agent="5.0 (Windows NT 10.0; Win64; x64) AppleWebKit/537.36 (KHTML, like Gecko) Chrome/100.0.4896.127 Safari/537.36" etag="jnAZjOu844bHViqGCfSH" version="17.4.6" type="github">
  <diagram id="8jjWs3WHJ7Y09ZSk-3Ga" name="Page-1">
    <mxGraphModel dx="689" dy="739" grid="1" gridSize="10" guides="1" tooltips="1" connect="1" arrows="1" fold="1" page="1" pageScale="1" pageWidth="850" pageHeight="1100" math="0" shadow="0">
      <root>
        <mxCell id="0" />
        <mxCell id="1" parent="0" />
        <mxCell id="ojEiuO20UweXeS1QDJIr-1" value="&lt;font style=&quot;font-size: 40px&quot; color=&quot;#ff0000&quot;&gt;CATHode&lt;br&gt;RAY&lt;br&gt;&lt;/font&gt;" style="text;html=1;align=center;verticalAlign=middle;resizable=0;points=[];autosize=1;strokeColor=none;fillColor=none;" vertex="1" parent="1">
          <mxGeometry x="175" y="145" width="190" height="50" as="geometry" />
        </mxCell>
        <mxCell id="ojEiuO20UweXeS1QDJIr-2" value="MISSION" style="text;html=1;align=center;verticalAlign=middle;resizable=0;points=[];autosize=1;strokeColor=none;fillColor=none;fontSize=40;fontColor=#FF0000;" vertex="1" parent="1">
          <mxGeometry x="40" y="320" width="180" height="50" as="geometry" />
        </mxCell>
        <mxCell id="ojEiuO20UweXeS1QDJIr-3" value="&lt;font color=&quot;#069968&quot;&gt;FUGUE&lt;/font&gt;" style="text;html=1;align=center;verticalAlign=middle;resizable=0;points=[];autosize=1;strokeColor=none;fillColor=none;fontSize=40;fontColor=#FF0000;" vertex="1" parent="1">
          <mxGeometry x="345" y="320" width="160" height="50" as="geometry" />
        </mxCell>
        <mxCell id="ojEiuO20UweXeS1QDJIr-5" value="" style="shape=partialRectangle;whiteSpace=wrap;html=1;bottom=1;right=1;left=1;top=0;fillColor=none;routingCenterX=-0.5;fontSize=40;fontColor=#069968;rotation=-180;strokeColor=#069968;" vertex="1" parent="1">
          <mxGeometry x="348" y="310" width="155" height="50" as="geometry" />
        </mxCell>
        <mxCell id="ojEiuO20UweXeS1QDJIr-6" value="" style="shape=partialRectangle;whiteSpace=wrap;html=1;bottom=1;right=1;left=1;top=0;fillColor=none;routingCenterX=-0.5;fontSize=40;fontColor=#069968;rotation=-180;strokeColor=#FF0000;" vertex="1" parent="1">
          <mxGeometry x="37.5" y="310" width="185" height="50" as="geometry" />
        </mxCell>
        <mxCell id="ojEiuO20UweXeS1QDJIr-7" value="" style="endArrow=none;html=1;rounded=0;fontSize=40;fontColor=#069968;strokeColor=#069968;" edge="1" parent="1">
          <mxGeometry width="50" height="50" relative="1" as="geometry">
            <mxPoint x="38.5" y="370" as="sourcePoint" />
            <mxPoint x="221" y="370" as="targetPoint" />
          </mxGeometry>
        </mxCell>
        <mxCell id="ojEiuO20UweXeS1QDJIr-8" value="" style="endArrow=none;html=1;rounded=0;fontSize=40;fontColor=#069968;strokeColor=#069968;" edge="1" parent="1">
          <mxGeometry width="50" height="50" relative="1" as="geometry">
            <mxPoint x="38" y="364" as="sourcePoint" />
            <mxPoint x="220.5" y="364" as="targetPoint" />
          </mxGeometry>
        </mxCell>
        <mxCell id="ojEiuO20UweXeS1QDJIr-9" value="" style="endArrow=none;html=1;rounded=0;fontSize=40;fontColor=#069968;strokeColor=#FF0000;" edge="1" parent="1">
          <mxGeometry width="50" height="50" relative="1" as="geometry">
            <mxPoint x="348.5" y="369" as="sourcePoint" />
            <mxPoint x="510" y="369" as="targetPoint" />
          </mxGeometry>
        </mxCell>
        <mxCell id="ojEiuO20UweXeS1QDJIr-10" value="" style="endArrow=none;html=1;rounded=0;fontSize=40;fontColor=#069968;strokeColor=#FF0000;" edge="1" parent="1">
          <mxGeometry width="50" height="50" relative="1" as="geometry">
            <mxPoint x="348" y="363" as="sourcePoint" />
            <mxPoint x="510" y="363" as="targetPoint" />
          </mxGeometry>
        </mxCell>
        <mxCell id="ojEiuO20UweXeS1QDJIr-11" value="" style="endArrow=none;dashed=1;html=1;rounded=0;fontSize=40;fontColor=#069968;strokeColor=#FF0000;exitX=0.25;exitY=1;exitDx=0;exitDy=0;" edge="1" parent="1" source="ojEiuO20UweXeS1QDJIr-6">
          <mxGeometry width="50" height="50" relative="1" as="geometry">
            <mxPoint x="175" y="302" as="sourcePoint" />
            <mxPoint x="240" y="212" as="targetPoint" />
          </mxGeometry>
        </mxCell>
        <mxCell id="ojEiuO20UweXeS1QDJIr-12" value="" style="endArrow=none;dashed=1;html=1;rounded=0;fontSize=40;fontColor=#069968;strokeColor=#069968;exitX=0.75;exitY=1;exitDx=0;exitDy=0;" edge="1" parent="1" source="ojEiuO20UweXeS1QDJIr-5">
          <mxGeometry width="50" height="50" relative="1" as="geometry">
            <mxPoint x="230" y="310" as="sourcePoint" />
            <mxPoint x="293.75" y="212" as="targetPoint" />
          </mxGeometry>
        </mxCell>
      </root>
    </mxGraphModel>
  </diagram>
</mxfile>
